<?xml version="1.0" standalone="no"?>
<!DOCTYPE svg PUBLIC "-//W3C//DTD SVG 20010904//EN"
 "http://www.w3.org/TR/2001/REC-SVG-20010904/DTD/svg10.dtd">
<svg version="1.0" xmlns="http://www.w3.org/2000/svg"
 width="2048.000000pt" height="2048.000000pt" viewBox="0 0 100"
 preserveAspectRatio="xMidYMid meet">
<metadata>
Created by potrace 1.16, written by Peter Selinger 2001-2019
</metadata>
<g transform="translate(0.000000,2048.000000) scale(0.100000,-0.100000)"
fill="#000000" stroke="none">
<path d="M15530 16724 c-726 -61 -1029 -108 -1371 -214 l-95 -29 -432 -440
c-238 -242 -429 -442 -424 -444 4 -3 55 8 112 24 138 39 416 103 560 128 110
20 313 43 650 76 228 22 623 30 830 16 484 -33 1007 -125 1232 -216 170 -69
498 -142 823 -182 218 -28 775 -24 1025 6 235 28 435 62 625 107 l150 36 325
327 c403 406 543 551 537 558 -3 2 -113 -18 -245 -46 -453 -96 -727 -125
-1142 -125 -502 1 -872 58 -1280 199 -214 73 -363 108 -640 150 -373 56 -517
67 -865 70 -181 1 -350 1 -375 -1z"/>
<path d="M16609 15376 c-8 -17 -9 -252 -2 -827 4 -442 5 -1351 2 -2019 -11
-2125 -10 -4801 2 -4885 6 -43 19 -105 29 -139 58 -185 223 -348 415 -409 94
-30 292 -31 375 -3 207 70 357 219 425 421 15 45 16 336 16 3859 -1 2567 -4
3813 -11 3820 -7 7 -25 6 -58 -3 -86 -24 -126 -30 -212 -30 -220 -1 -557 77
-836 194 -59 25 -113 45 -121 45 -7 0 -18 -11 -24 -24z"/>
<path d="M2620 14785 c-380 -85 -731 -446 -1044 -1074 -567 -1135 -932 -3002
-995 -5091 -37 -1197 -38 -1443 -6 -1925 18 -279 31 -377 65 -517 36 -143 48
-174 90 -221 25 -28 40 -37 64 -37 59 0 79 39 107 202 51 304 187 690 331 938
384 663 1250 1601 2233 2421 300 251 891 706 902 695 7 -7 26 -107 77 -416
122 -726 205 -1406 291 -2390 28 -313 37 -387 61 -472 28 -97 77 -126 113 -67
44 72 46 115 46 1054 0 886 -4 1049 -41 1560 -24 348 -84 962 -99 1033 -5 20
27 44 292 220 1031 684 2088 1268 3248 1794 1541 699 2868 1124 4178 1338 565
92 884 122 1366 126 324 3 376 6 384 19 12 22 3 31 -56 58 -95 44 -208 141
-294 254 -20 26 -22 36 -14 52 16 29 194 176 281 232 109 70 124 83 117 102
-17 46 -570 1 -1093 -88 -1059 -181 -2102 -461 -3054 -819 -1017 -383 -2170
-934 -3375 -1613 -82 -47 -154 -90 -160 -97 -5 -6 -107 -70 -225 -140 -512
-305 -1115 -694 -1523 -980 -60 -42 -112 -76 -117 -76 -4 0 -15 51 -24 113
-102 664 -261 1353 -437 1887 -362 1096 -817 1752 -1324 1910 -92 28 -272 36
-365 15z m305 -1330 c420 -109 839 -850 1174 -2075 81 -297 205 -830 199 -855
-2 -7 -93 -81 -203 -166 -1285 -982 -2249 -1934 -2824 -2789 -155 -230 -266
-428 -393 -700 l-17 -35 0 29 c-1 51 48 675 80 1011 288 3055 920 5169 1657
5544 98 50 220 63 327 36z"/>
<path d="M15415 14635 c-564 -53 -803 -75 -815 -75 -24 0 -5 -29 64 -100 67
-69 77 -84 115 -182 22 -59 41 -112 41 -117 0 -22 22 -20 72 5 l52 27 52 -58
c33 -36 58 -56 67 -52 12 5 171 125 602 459 77 60 142 113 143 118 5 13 20 14
-393 -25z"/>
<path d="M15777 13777 c-9 -7 -32 -55 -53 -107 -129 -332 -306 -585 -466 -666
-72 -37 -151 -43 -209 -16 -60 28 -102 54 -112 70 -14 22 -46 14 -53 -15 -4
-14 -4 -1264 -1 -2777 7 -3027 2 -2813 68 -2936 42 -79 120 -155 199 -193 131
-62 305 -46 436 42 58 39 126 116 156 176 40 81 36 -120 68 3630 26 3049 25
2781 3 2793 -15 8 -24 8 -36 -1z"/>
<path d="M14060 11196 c-124 -36 -256 -130 -411 -293 -170 -180 -323 -400
-516 -742 l-31 -54 5 194 c6 214 -2 273 -55 379 -37 75 -142 178 -220 217
-133 67 -280 70 -405 10 -80 -39 -84 -42 -212 -182 -283 -308 -522 -651 -600
-858 -27 -73 -33 -153 -12 -181 11 -15 69 -35 104 -36 10 0 517 504 535 533
14 22 8 -16 -37 -235 -180 -872 -285 -1826 -256 -2315 19 -307 54 -414 156
-470 70 -39 167 -39 240 -1 104 55 173 155 200 288 9 47 32 150 52 230 225
921 574 1890 885 2454 65 119 188 304 225 339 l29 27 12 -90 c30 -225 136
-396 290 -472 59 -29 76 -33 147 -32 68 0 89 5 140 30 94 46 184 142 239 255
69 144 80 197 81 384 0 185 -11 242 -76 373 -49 101 -129 186 -212 227 -50 24
-73 29 -155 31 -60 2 -114 -2 -142 -10z"/>
<path d="M10140 11141 c-224 -32 -482 -184 -607 -358 -240 -336 -153 -787 239
-1241 94 -109 225 -224 418 -367 172 -127 372 -325 473 -465 75 -107 174 -297
212 -410 57 -169 72 -382 35 -524 -53 -209 -201 -378 -400 -456 -118 -46 -217
-63 -370 -63 -230 0 -362 45 -473 161 -165 174 -217 427 -171 837 23 201 11
255 -55 255 -47 0 -77 -34 -111 -123 -70 -181 -108 -452 -89 -630 25 -225 137
-429 307 -558 93 -70 267 -154 387 -185 87 -23 121 -27 260 -28 184 -1 249 9
413 66 304 104 534 267 674 478 136 206 198 401 199 624 0 322 -111 617 -369
981 -19 28 -144 160 -277 295 -279 282 -403 420 -469 519 -100 150 -167 336
-181 506 -20 238 84 405 252 405 87 0 151 -34 248 -133 88 -89 149 -182 191
-292 24 -62 27 -84 28 -195 0 -69 -3 -148 -8 -177 -11 -65 -3 -98 29 -119 79
-52 178 104 192 303 32 439 -369 867 -837 896 -47 3 -110 2 -140 -2z"/>
<path d="M7810 11030 c-122 -25 -289 -142 -377 -263 -21 -29 -74 -97 -118
-152 -352 -440 -704 -1192 -907 -1939 -12 -45 -13 -24 -14 220 -1 385 -21 529
-111 798 -40 118 -54 146 -91 188 -84 93 -190 120 -310 79 -82 -28 -132 -60
-211 -135 -159 -152 -268 -378 -306 -633 -18 -123 -12 -158 29 -169 37 -9 62
3 114 55 65 65 120 138 192 256 l61 100 -8 -185 c-11 -260 -7 -1097 7 -1232
26 -266 80 -431 189 -579 145 -197 320 -183 415 33 13 29 49 136 80 238 258
835 777 2245 943 2560 132 251 288 420 389 420 89 0 141 -163 110 -346 -16
-93 -47 -371 -68 -604 -16 -180 -16 -806 0 -990 21 -229 79 -677 107 -817 32
-160 86 -337 131 -427 126 -252 343 -354 546 -259 189 89 325 320 370 627 13
93 6 145 -22 171 -44 40 -102 -12 -134 -121 -53 -178 -71 -228 -116 -320 -54
-111 -134 -208 -183 -220 -65 -15 -105 38 -128 171 -18 102 2 1209 42 2430 6
193 9 391 6 440 -18 256 -148 475 -339 570 -66 32 -87 38 -160 41 -45 2 -103
-1 -128 -6z"/>
<path d="M1590 6275 l0 -25 8208 0 c4514 0 8339 -3 8500 -7 l292 -6 0 25 0 25
-6127 6 c-3371 4 -7196 7 -8500 7 l-2373 0 0 -25z"/>
<path d="M2145 6135 c-120 -43 -172 -203 -99 -309 23 -33 50 -51 134 -93 58
-29 111 -60 117 -70 35 -47 -9 -103 -79 -103 -54 0 -107 27 -130 67 -31 51
-54 44 -62 -19 -4 -29 -9 -62 -12 -74 -5 -18 2 -23 53 -37 75 -21 206 -22 264
-2 114 41 171 176 123 295 -20 49 -52 74 -167 125 -54 24 -98 51 -110 67 -19
25 -19 28 -4 52 19 29 76 48 118 39 28 -5 89 -63 89 -83 0 -6 8 -10 18 -10 12
0 21 13 29 48 7 26 15 56 18 68 6 18 0 23 -52 37 -72 21 -193 21 -248 2z"/>
<path d="M4099 6137 c-152 -43 -239 -159 -239 -322 0 -98 28 -174 85 -231 81
-81 172 -109 326 -102 85 4 107 9 163 37 117 58 176 156 176 296 0 144 -73
258 -197 306 -71 27 -242 36 -314 16z m202 -80 c51 -33 79 -98 86 -198 6 -91
-7 -179 -33 -236 -49 -101 -189 -96 -242 9 -29 57 -41 213 -23 298 27 127 124
186 212 127z"/>
<path d="M6025 5815 l0 -330 217 0 218 0 0 50 0 50 -110 -3 -111 -3 3 280 3
280 -110 3 -110 3 0 -330z"/>
<path d="M13582 6128 c-82 -28 -152 -90 -188 -166 -22 -47 -27 -72 -28 -137
-2 -148 56 -245 181 -307 58 -29 78 -33 166 -36 195 -8 315 53 380 195 31 69
31 208 -1 278 -31 68 -93 128 -166 161 -53 25 -76 29 -171 31 -92 3 -120 0
-173 -19z m236 -75 c75 -56 100 -231 57 -388 -39 -138 -197 -156 -260 -30 -17
34 -20 60 -20 180 0 131 2 143 25 185 43 77 133 101 198 53z"/>
<path d="M17695 6138 c-84 -29 -134 -103 -135 -196 0 -103 36 -147 181 -220
96 -48 122 -74 112 -113 -8 -30 -59 -52 -110 -46 -51 5 -89 28 -111 68 -19 32
-48 38 -56 12 -2 -10 -7 -44 -11 -75 l-6 -57 52 -15 c59 -18 196 -21 250 -6
98 27 153 104 153 210 0 112 -29 145 -186 218 -86 40 -108 55 -113 75 -15 57
51 97 127 77 37 -10 78 -50 78 -76 0 -17 39 -18 44 -1 2 6 8 30 13 52 6 22 12
47 14 55 10 37 -215 66 -296 38z"/>
<path d="M7807 6053 c1 -49 5 -153 7 -233 5 -164 14 -206 58 -256 58 -65 97
-79 233 -79 110 0 125 2 170 26 64 33 111 93 123 161 6 29 13 146 16 261 l6
207 -64 0 -64 0 1 -227 c2 -201 0 -232 -16 -260 -23 -43 -64 -63 -128 -63 -44
0 -55 4 -84 33 -43 43 -50 95 -42 334 l6 183 -113 0 -112 0 3 -87z"/>
<path d="M9800 6090 l0 -50 86 6 86 7 -4 -284 -3 -284 108 0 107 0 0 284 0
284 85 -7 85 -6 0 50 0 50 -275 0 -275 0 0 -50z"/>
<path d="M11735 5812 l0 -327 106 0 107 0 0 328 0 327 -107 0 -106 0 0 -328z"/>
<path d="M15533 5898 c1 -134 -2 -281 -7 -328 l-7 -85 58 2 c54 1 58 3 57 25
-12 256 -14 358 -6 358 8 0 169 -178 311 -344 32 -38 34 -39 105 -40 l73 -1 6
310 c3 171 9 318 12 328 6 15 0 17 -54 17 l-61 0 6 -197 c4 -132 3 -195 -3
-188 -42 42 -263 290 -297 333 l-41 52 -76 0 -76 0 0 -242z"/>
<path d="M1590 5345 l0 -25 8208 0 c4514 0 8339 -3 8500 -7 l292 -6 0 25 0 25
-6127 6 c-3371 4 -7196 7 -8500 7 l-2373 0 0 -25z"/>
<path d="M6475 3970 l0 -380 43 0 43 0 -2 117 c-1 72 3 119 9 121 5 1 56 -51
112 -118 l102 -120 55 0 55 0 -79 88 c-43 48 -98 110 -121 139 l-42 51 78 69
c43 37 92 80 110 95 18 15 32 29 32 31 0 3 -16 5 -36 5 -32 0 -46 -11 -138
-104 -96 -96 -135 -123 -136 -91 -1 6 0 117 0 245 l1 232 -43 0 -43 0 0 -380z"/>
<path d="M5215 4268 c-22 -55 -220 -497 -263 -590 l-41 -88 37 0 37 0 29 83
c16 45 39 106 52 135 l23 52 125 0 125 0 21 -47 c12 -27 36 -87 53 -135 l32
-88 53 0 c28 0 52 2 52 4 0 2 -19 46 -43 97 -24 52 -92 210 -152 352 -59 141
-112 257 -117 257 -5 0 -15 -15 -23 -32z m54 -232 c28 -65 51 -122 51 -127 0
-5 -47 -9 -105 -9 -58 0 -105 3 -105 8 0 10 103 253 106 249 2 -1 26 -56 53
-121z"/>
<path d="M12220 4203 c-24 -54 -94 -212 -156 -351 -63 -139 -114 -255 -114
-257 0 -3 15 -5 33 -5 l33 0 50 133 49 132 130 0 130 0 52 -130 52 -130 51 -3
c27 -2 50 -1 50 2 0 3 -17 42 -37 88 -20 46 -87 202 -148 348 -62 145 -117
266 -122 267 -5 2 -29 -40 -53 -94z m85 -170 c28 -63 52 -120 53 -124 2 -5
-46 -9 -107 -9 -61 0 -111 3 -111 6 0 13 104 244 109 244 3 0 29 -53 56 -117z"/>
<path d="M2655 4199 c-25 -48 -68 -127 -96 -175 -44 -74 -54 -85 -64 -71 -6 9
-49 86 -96 171 l-84 156 -54 0 c-38 0 -52 -3 -48 -12 2 -7 57 -101 122 -208
l118 -195 -6 -137 -7 -138 48 0 48 0 -4 145 -5 145 52 91 c29 50 80 135 115
188 34 53 65 101 69 107 4 8 -6 13 -29 16 l-36 4 -43 -87z"/>
<path d="M7705 3935 l0 -345 45 0 45 0 0 345 0 345 -45 0 -45 0 0 -345z"/>
<path d="M9573 4268 c2 -7 51 -163 108 -345 l103 -333 37 0 36 0 98 286 c59
171 101 281 105 273 7 -13 66 -191 151 -456 l33 -103 37 0 36 0 112 328 c62
180 115 335 118 345 4 14 -1 17 -28 17 l-34 0 -28 -98 c-68 -237 -151 -492
-158 -485 -7 8 -141 413 -174 527 -16 53 -18 56 -49 56 l-33 0 -98 -297 c-95
-288 -98 -297 -111 -267 -12 30 -133 436 -154 522 l-11 42 -50 0 c-36 0 -49
-4 -46 -12z"/>
<path d="M17064 3935 l0 -345 46 0 45 0 0 345 0 345 -45 0 -46 0 0 -345z"/>
<path d="M8218 4184 c-25 -13 -28 -20 -28 -69 0 -53 0 -54 -32 -57 -22 -2 -34
-9 -36 -20 -3 -15 4 -18 32 -18 l36 0 0 -191 0 -191 29 -29 c25 -25 37 -29 84
-29 31 0 62 3 71 6 30 11 16 23 -31 26 -72 5 -83 33 -83 209 0 75 3 151 6 168
6 30 8 31 59 31 45 0 53 3 51 18 -2 13 -14 18 -55 20 l-53 3 4 70 c3 76 -2 82
-54 53z"/>
<path d="M17572 4184 c-32 -14 -32 -14 -26 -69 l7 -55 -37 0 c-29 0 -36 -4
-36 -20 0 -16 7 -20 36 -20 l35 0 -3 -191 -3 -191 33 -29 c27 -24 41 -29 86
-29 30 0 61 3 70 6 30 12 16 24 -27 24 -32 0 -49 6 -63 21 -17 19 -19 38 -19
203 l0 181 53 3 c44 3 52 6 52 23 0 16 -7 19 -50 19 l-50 0 0 70 c0 76 -2 78
-58 54z"/>
<path d="M3079 4066 c-67 -24 -105 -54 -134 -108 -24 -45 -29 -64 -29 -128 1
-122 58 -214 151 -239 56 -16 158 -13 201 5 112 46 167 183 128 318 -37 127
-186 199 -317 152z m166 -43 c58 -42 88 -168 65 -278 -10 -47 -21 -68 -50 -97
-34 -35 -43 -38 -91 -38 -110 0 -162 69 -163 215 -1 114 30 179 99 211 37 18
107 11 140 -13z"/>
<path d="M5913 4061 c-55 -26 -83 -71 -83 -134 0 -42 5 -54 33 -82 22 -22 54
-39 91 -50 32 -9 72 -29 89 -45 29 -26 30 -30 22 -66 -20 -79 -115 -96 -184
-33 -18 16 -35 29 -36 27 -2 -2 -6 -19 -10 -39 -6 -34 -5 -37 26 -48 52 -18
144 -14 190 9 69 36 103 117 76 183 -17 38 -49 60 -127 83 -70 21 -100 48
-100 90 0 80 93 113 152 54 17 -17 31 -30 33 -28 1 2 7 18 13 36 11 31 10 33
-16 44 -51 20 -124 20 -169 -1z"/>
<path d="M10926 4065 c-83 -29 -133 -108 -143 -223 -5 -56 -2 -76 17 -120 27
-64 85 -117 142 -133 103 -27 258 14 258 69 0 24 0 24 -27 6 -60 -39 -84 -46
-142 -42 -95 7 -146 57 -158 157 l-5 48 65 7 c36 3 116 3 176 0 l111 -7 0 52
c0 89 -35 145 -115 182 -47 22 -124 24 -179 4z m141 -32 c40 -19 72 -77 73
-131 l0 -33 -132 3 -133 3 3 25 c6 48 46 112 82 131 43 23 62 24 107 2z"/>
<path d="M13064 4061 c-22 -10 -50 -31 -62 -46 l-22 -28 0 42 c0 41 0 41 -38
41 l-37 0 0 -240 0 -240 40 0 40 0 0 174 c0 161 2 177 21 203 50 68 140 79
188 23 33 -39 39 -92 34 -261 l-4 -139 44 0 44 0 -4 193 c-3 187 -4 195 -28
230 -44 64 -136 84 -216 48z"/>
<path d="M13755 4073 c-32 -8 -85 -53 -97 -81 -14 -37 -13 -98 2 -126 14 -27
65 -57 136 -80 29 -9 59 -25 69 -36 33 -37 16 -107 -32 -129 -49 -22 -94 -11
-145 36 l-26 25 -7 -24 c-4 -12 -9 -31 -11 -40 -11 -39 151 -52 220 -18 55 27
79 63 84 125 4 44 1 55 -22 82 -17 20 -46 38 -79 48 -119 39 -150 70 -127 130
24 64 98 76 149 24 l31 -30 10 26 c5 14 10 32 10 39 0 25 -105 43 -165 29z"/>
<path d="M15385 4068 c-50 -18 -84 -47 -112 -96 -26 -43 -28 -56 -28 -149 0
-96 1 -103 30 -144 66 -95 208 -128 322 -75 31 15 54 33 58 46 9 29 -1 37 -23
17 -30 -27 -89 -47 -140 -47 -53 0 -100 25 -134 70 -22 31 -41 121 -27 135 6
6 78 9 181 8 l171 -2 -6 61 c-6 70 -41 130 -95 161 -40 24 -152 32 -197 15z
m159 -46 c27 -25 44 -62 48 -107 l3 -40 -133 -3 c-121 -2 -132 -1 -132 15 1
29 27 93 47 115 42 48 124 58 167 20z"/>
<path d="M16165 4069 c-11 -6 -37 -29 -59 -52 l-38 -42 6 47 5 47 -42 -2 c-23
-1 -41 -5 -39 -9 1 -5 2 -111 2 -238 l0 -230 38 0 37 0 0 152 c0 174 4 194 42
233 25 24 33 27 75 22 l48 -6 0 44 c0 42 -2 45 -27 45 -16 0 -37 -5 -48 -11z"/>
<path d="M3740 4067 c0 -1 -1 -87 -3 -192 -2 -215 4 -240 73 -276 69 -37 186
-18 229 37 25 32 28 30 23 -11 -4 -35 -4 -35 37 -35 l41 0 0 240 0 240 -40 0
-40 0 0 -165 c0 -181 -7 -216 -55 -253 -37 -29 -112 -30 -148 -2 -42 34 -50
76 -45 255 l4 163 -38 0 c-21 1 -38 0 -38 -1z"/>
<path d="M14220 4062 c0 -4 14 -43 31 -87 17 -44 55 -147 84 -230 51 -146 54
-150 83 -153 34 -4 26 -19 107 212 25 72 49 134 54 139 8 8 82 -179 116 -295
15 -53 19 -58 44 -58 26 0 30 7 66 98 21 53 65 157 97 231 32 74 58 138 58
142 0 5 -12 9 -27 9 -27 0 -30 -7 -97 -191 -54 -150 -72 -188 -80 -177 -8 12
-93 259 -122 356 -2 6 -16 12 -31 12 -27 0 -29 -5 -92 -190 -36 -105 -68 -190
-71 -190 -9 0 -95 241 -120 338 -11 42 -11 42 -55 42 -25 0 -45 -3 -45 -8z"/>
<path d="M8722 3683 c-21 -40 -83 -244 -80 -260 5 -27 150 220 146 249 -4 30
-52 38 -66 11z"/>
</g>
</svg>
